<svg xmlns="http://www.w3.org/2000/svg" viewBox="0 0 1600 470" width="1600" height="470" role="img" aria-label="EmrhnHARPUT son 30 günlük aktivite: toplam 94 katkı, günlük ortalama 3.1, en yüksek 20."><style>text{font-family:"Segoe UI", Ubuntu, Roboto, sans-serif}.m{font-family:"Consolas", "SF Mono", Menlo, monospace}@keyframes ap{0%,100%{opacity:.35}50%{opacity:1}}.ap{animation:ap 2.6s ease-in-out infinite}@media (prefers-reduced-motion:reduce){.ap{animation:none}}</style><defs><clipPath id="ac"><rect width="1600" height="470" rx="14"/></clipPath><linearGradient id="aar" gradientUnits="userSpaceOnUse" x1="0" y1="150" x2="0" y2="390"><stop offset="0" stop-color="#2BB3BA" stop-opacity=".50"/><stop offset="1" stop-color="#2BB3BA" stop-opacity="0"/></linearGradient><filter id="agl" x="-30%" y="-80%" width="160%" height="300%"><feGaussianBlur stdDeviation="4"/></filter></defs><g clip-path="url(#ac)"><rect width="1600" height="470" fill="#08080A"/><text x="40" y="56" fill="#E8EAED" font-size="26" font-weight="600">Aktivite</text><text x="40" y="88" fill="#9AA0A6" font-size="16">Son 30 gün · 28 Ağu – 26 Eyl 2026 · toplam 94 katkı · günlük ort. 3.1 · en yüksek 20</text><rect x="127.1" y="150" width="50.3" height="240" fill="#2BB3BA" opacity=".05"/><rect x="177.4" y="150" width="50.3" height="240" fill="#2BB3BA" opacity=".05"/><rect x="479.1" y="150" width="50.3" height="240" fill="#2BB3BA" opacity=".05"/><rect x="529.3" y="150" width="50.3" height="240" fill="#2BB3BA" opacity=".05"/><rect x="831.0" y="150" width="50.3" height="240" fill="#2BB3BA" opacity=".05"/><rect x="881.3" y="150" width="50.3" height="240" fill="#2BB3BA" opacity=".05"/><rect x="1182.9" y="150" width="50.3" height="240" fill="#2BB3BA" opacity=".05"/><rect x="1233.2" y="150" width="50.3" height="240" fill="#2BB3BA" opacity=".05"/><rect x="1534.9" y="150" width="50.3" height="240" fill="#2BB3BA" opacity=".05"/><line x1="102.0" y1="150" x2="102.0" y2="390" stroke="#23262B" stroke-width="1" opacity=".42"/><line x1="152.3" y1="150" x2="152.3" y2="390" stroke="#23262B" stroke-width="1" opacity=".18"/><line x1="202.6" y1="150" x2="202.6" y2="390" stroke="#23262B" stroke-width="1" opacity=".18"/><line x1="252.8" y1="150" x2="252.8" y2="390" stroke="#23262B" stroke-width="1" opacity=".18"/><line x1="303.1" y1="150" x2="303.1" y2="390" stroke="#23262B" stroke-width="1" opacity=".18"/><line x1="353.4" y1="150" x2="353.4" y2="390" stroke="#23262B" stroke-width="1" opacity=".18"/><line x1="403.7" y1="150" x2="403.7" y2="390" stroke="#23262B" stroke-width="1" opacity=".42"/><line x1="453.9" y1="150" x2="453.9" y2="390" stroke="#23262B" stroke-width="1" opacity=".18"/><line x1="504.2" y1="150" x2="504.2" y2="390" stroke="#23262B" stroke-width="1" opacity=".18"/><line x1="554.5" y1="150" x2="554.5" y2="390" stroke="#23262B" stroke-width="1" opacity=".18"/><line x1="604.8" y1="150" x2="604.8" y2="390" stroke="#23262B" stroke-width="1" opacity=".18"/><line x1="655.0" y1="150" x2="655.0" y2="390" stroke="#23262B" stroke-width="1" opacity=".18"/><line x1="705.3" y1="150" x2="705.3" y2="390" stroke="#23262B" stroke-width="1" opacity=".42"/><line x1="755.6" y1="150" x2="755.6" y2="390" stroke="#23262B" stroke-width="1" opacity=".18"/><line x1="805.9" y1="150" x2="805.9" y2="390" stroke="#23262B" stroke-width="1" opacity=".18"/><line x1="856.1" y1="150" x2="856.1" y2="390" stroke="#23262B" stroke-width="1" opacity=".18"/><line x1="906.4" y1="150" x2="906.4" y2="390" stroke="#23262B" stroke-width="1" opacity=".18"/><line x1="956.7" y1="150" x2="956.7" y2="390" stroke="#23262B" stroke-width="1" opacity=".18"/><line x1="1007.0" y1="150" x2="1007.0" y2="390" stroke="#23262B" stroke-width="1" opacity=".42"/><line x1="1057.2" y1="150" x2="1057.2" y2="390" stroke="#23262B" stroke-width="1" opacity=".18"/><line x1="1107.5" y1="150" x2="1107.5" y2="390" stroke="#23262B" stroke-width="1" opacity=".18"/><line x1="1157.8" y1="150" x2="1157.8" y2="390" stroke="#23262B" stroke-width="1" opacity=".18"/><line x1="1208.1" y1="150" x2="1208.1" y2="390" stroke="#23262B" stroke-width="1" opacity=".18"/><line x1="1258.3" y1="150" x2="1258.3" y2="390" stroke="#23262B" stroke-width="1" opacity=".18"/><line x1="1308.6" y1="150" x2="1308.6" y2="390" stroke="#23262B" stroke-width="1" opacity=".42"/><line x1="1358.9" y1="150" x2="1358.9" y2="390" stroke="#23262B" stroke-width="1" opacity=".18"/><line x1="1409.2" y1="150" x2="1409.2" y2="390" stroke="#23262B" stroke-width="1" opacity=".18"/><line x1="1459.4" y1="150" x2="1459.4" y2="390" stroke="#23262B" stroke-width="1" opacity=".18"/><line x1="1509.7" y1="150" x2="1509.7" y2="390" stroke="#23262B" stroke-width="1" opacity=".18"/><line x1="1560.0" y1="150" x2="1560.0" y2="390" stroke="#23262B" stroke-width="1" opacity=".18"/><line x1="102" y1="390.0" x2="1560" y2="390.0" stroke="#23262B" stroke-width="1" opacity="1"/><text class="m" x="86" y="395.0" text-anchor="end" fill="#9AA0A6" font-size="15">0</text><line x1="102" y1="330.0" x2="1560" y2="330.0" stroke="#23262B" stroke-width="1" opacity=".6"/><text class="m" x="86" y="335.0" text-anchor="end" fill="#9AA0A6" font-size="15">5</text><line x1="102" y1="270.0" x2="1560" y2="270.0" stroke="#23262B" stroke-width="1" opacity=".6"/><text class="m" x="86" y="275.0" text-anchor="end" fill="#9AA0A6" font-size="15">10</text><line x1="102" y1="210.0" x2="1560" y2="210.0" stroke="#23262B" stroke-width="1" opacity=".6"/><text class="m" x="86" y="215.0" text-anchor="end" fill="#9AA0A6" font-size="15">15</text><line x1="102" y1="150.0" x2="1560" y2="150.0" stroke="#23262B" stroke-width="1" opacity=".6"/><text class="m" x="86" y="155.0" text-anchor="end" fill="#9AA0A6" font-size="15">20</text><path d="M102.0,354.0 C110.4,356.0 135.5,364.0 152.3,366.0 C169.0,368.0 185.8,368.0 202.6,366.0 C219.3,364.0 236.1,352.0 252.8,354.0 C269.6,356.0 286.3,374.0 303.1,378.0 C319.9,382.0 336.6,386.0 353.4,378.0 C370.1,370.0 386.9,332.0 403.7,330.0 C420.4,328.0 437.2,360.0 453.9,366.0 C470.7,372.0 487.4,376.0 504.2,366.0 C521.0,356.0 537.7,304.0 554.5,306.0 C571.2,308.0 588.0,366.0 604.8,378.0 C621.5,390.0 638.3,378.0 655.0,378.0 C671.8,378.0 688.6,378.0 705.3,378.0 C722.1,378.0 738.8,378.0 755.6,378.0 C772.3,378.0 789.1,378.0 805.9,378.0 C822.6,378.0 839.4,382.0 856.1,378.0 C872.9,374.0 889.7,356.0 906.4,354.0 C923.2,352.0 939.9,368.0 956.7,366.0 C973.4,364.0 990.2,340.0 1007.0,342.0 C1023.7,344.0 1040.5,372.0 1057.2,378.0 C1074.0,384.0 1090.8,378.0 1107.5,378.0 C1124.3,378.0 1141.0,378.0 1157.8,378.0 C1174.6,378.0 1191.3,390.0 1208.1,378.0 C1224.8,340.0 1241.6,184.0 1258.3,150.0 C1275.1,150.0 1291.9,150.0 1308.6,174.0 C1325.4,208.0 1342.1,326.0 1358.9,354.0 C1375.7,382.0 1392.4,338.0 1409.2,342.0 C1425.9,346.0 1442.7,372.0 1459.4,378.0 C1476.2,384.0 1493.0,376.0 1509.7,378.0 C1526.5,380.0 1551.6,388.0 1560.0,390.0 L1560.0,390 L102.0,390 Z" fill="url(#aar)"/><line x1="102" y1="352.4" x2="1560" y2="352.4" stroke="#9AA0A6" stroke-width="1.2" stroke-dasharray="7 6" opacity=".7"/><text class="m" x="1554" y="342.4" text-anchor="end" fill="#9AA0A6" font-size="14" opacity=".9">ort.</text><path d="M102.0,354.0 C110.4,356.0 135.5,364.0 152.3,366.0 C169.0,368.0 185.8,368.0 202.6,366.0 C219.3,364.0 236.1,352.0 252.8,354.0 C269.6,356.0 286.3,374.0 303.1,378.0 C319.9,382.0 336.6,386.0 353.4,378.0 C370.1,370.0 386.9,332.0 403.7,330.0 C420.4,328.0 437.2,360.0 453.9,366.0 C470.7,372.0 487.4,376.0 504.2,366.0 C521.0,356.0 537.7,304.0 554.5,306.0 C571.2,308.0 588.0,366.0 604.8,378.0 C621.5,390.0 638.3,378.0 655.0,378.0 C671.8,378.0 688.6,378.0 705.3,378.0 C722.1,378.0 738.8,378.0 755.6,378.0 C772.3,378.0 789.1,378.0 805.9,378.0 C822.6,378.0 839.4,382.0 856.1,378.0 C872.9,374.0 889.7,356.0 906.4,354.0 C923.2,352.0 939.9,368.0 956.7,366.0 C973.4,364.0 990.2,340.0 1007.0,342.0 C1023.7,344.0 1040.5,372.0 1057.2,378.0 C1074.0,384.0 1090.8,378.0 1107.5,378.0 C1124.3,378.0 1141.0,378.0 1157.8,378.0 C1174.6,378.0 1191.3,390.0 1208.1,378.0 C1224.8,340.0 1241.6,184.0 1258.3,150.0 C1275.1,150.0 1291.9,150.0 1308.6,174.0 C1325.4,208.0 1342.1,326.0 1358.9,354.0 C1375.7,382.0 1392.4,338.0 1409.2,342.0 C1425.9,346.0 1442.7,372.0 1459.4,378.0 C1476.2,384.0 1493.0,376.0 1509.7,378.0 C1526.5,380.0 1551.6,388.0 1560.0,390.0" fill="none" stroke="#2BB3BA" stroke-width="7" opacity=".30" filter="url(#agl)" stroke-linejoin="round" stroke-linecap="round"/><path d="M102.0,354.0 C110.4,356.0 135.5,364.0 152.3,366.0 C169.0,368.0 185.8,368.0 202.6,366.0 C219.3,364.0 236.1,352.0 252.8,354.0 C269.6,356.0 286.3,374.0 303.1,378.0 C319.9,382.0 336.6,386.0 353.4,378.0 C370.1,370.0 386.9,332.0 403.7,330.0 C420.4,328.0 437.2,360.0 453.9,366.0 C470.7,372.0 487.4,376.0 504.2,366.0 C521.0,356.0 537.7,304.0 554.5,306.0 C571.2,308.0 588.0,366.0 604.8,378.0 C621.5,390.0 638.3,378.0 655.0,378.0 C671.8,378.0 688.6,378.0 705.3,378.0 C722.1,378.0 738.8,378.0 755.6,378.0 C772.3,378.0 789.1,378.0 805.9,378.0 C822.6,378.0 839.4,382.0 856.1,378.0 C872.9,374.0 889.7,356.0 906.4,354.0 C923.2,352.0 939.9,368.0 956.7,366.0 C973.4,364.0 990.2,340.0 1007.0,342.0 C1023.7,344.0 1040.5,372.0 1057.2,378.0 C1074.0,384.0 1090.8,378.0 1107.5,378.0 C1124.3,378.0 1141.0,378.0 1157.8,378.0 C1174.6,378.0 1191.3,390.0 1208.1,378.0 C1224.8,340.0 1241.6,184.0 1258.3,150.0 C1275.1,150.0 1291.9,150.0 1308.6,174.0 C1325.4,208.0 1342.1,326.0 1358.9,354.0 C1375.7,382.0 1392.4,338.0 1409.2,342.0 C1425.9,346.0 1442.7,372.0 1459.4,378.0 C1476.2,384.0 1493.0,376.0 1509.7,378.0 C1526.5,380.0 1551.6,388.0 1560.0,390.0" fill="none" stroke="#45D6DD" stroke-width="3.2" stroke-linejoin="round" stroke-linecap="round"/><circle cx="102.0" cy="354.0" r="3.3" fill="#08080A" stroke="#45D6DD" stroke-width="2.1"/><circle cx="152.3" cy="366.0" r="3.2" fill="#08080A" stroke="#45D6DD" stroke-width="2.1"/><circle cx="202.6" cy="366.0" r="3.2" fill="#08080A" stroke="#45D6DD" stroke-width="2.1"/><circle cx="252.8" cy="354.0" r="3.3" fill="#08080A" stroke="#45D6DD" stroke-width="2.1"/><circle cx="303.1" cy="378.0" r="3.1" fill="#08080A" stroke="#45D6DD" stroke-width="2.1"/><circle cx="353.4" cy="378.0" r="3.1" fill="#08080A" stroke="#45D6DD" stroke-width="2.1"/><circle cx="403.7" cy="330.0" r="3.5" fill="#08080A" stroke="#45D6DD" stroke-width="2.1"/><circle cx="453.9" cy="366.0" r="3.2" fill="#08080A" stroke="#45D6DD" stroke-width="2.1"/><circle cx="504.2" cy="366.0" r="3.2" fill="#08080A" stroke="#45D6DD" stroke-width="2.1"/><circle cx="554.5" cy="306.0" r="3.7" fill="#08080A" stroke="#45D6DD" stroke-width="2.1"/><circle cx="604.8" cy="378.0" r="3.1" fill="#08080A" stroke="#45D6DD" stroke-width="2.1"/><circle cx="655.0" cy="378.0" r="3.1" fill="#08080A" stroke="#45D6DD" stroke-width="2.1"/><circle cx="705.3" cy="378.0" r="3.1" fill="#08080A" stroke="#45D6DD" stroke-width="2.1"/><circle cx="755.6" cy="378.0" r="3.1" fill="#08080A" stroke="#45D6DD" stroke-width="2.1"/><circle cx="805.9" cy="378.0" r="3.1" fill="#08080A" stroke="#45D6DD" stroke-width="2.1"/><circle cx="856.1" cy="378.0" r="3.1" fill="#08080A" stroke="#45D6DD" stroke-width="2.1"/><circle cx="906.4" cy="354.0" r="3.3" fill="#08080A" stroke="#45D6DD" stroke-width="2.1"/><circle cx="956.7" cy="366.0" r="3.2" fill="#08080A" stroke="#45D6DD" stroke-width="2.1"/><circle cx="1007.0" cy="342.0" r="3.4" fill="#08080A" stroke="#45D6DD" stroke-width="2.1"/><circle cx="1057.2" cy="378.0" r="3.1" fill="#08080A" stroke="#45D6DD" stroke-width="2.1"/><circle cx="1107.5" cy="378.0" r="3.1" fill="#08080A" stroke="#45D6DD" stroke-width="2.1"/><circle cx="1157.8" cy="378.0" r="3.1" fill="#08080A" stroke="#45D6DD" stroke-width="2.1"/><circle cx="1208.1" cy="378.0" r="3.1" fill="#08080A" stroke="#45D6DD" stroke-width="2.1"/><circle cx="1258.3" cy="150.0" r="4.9" fill="#08080A" stroke="#45D6DD" stroke-width="2.1"/><circle cx="1308.6" cy="174.0" r="4.7" fill="#08080A" stroke="#45D6DD" stroke-width="2.1"/><circle cx="1358.9" cy="354.0" r="3.3" fill="#08080A" stroke="#45D6DD" stroke-width="2.1"/><circle cx="1409.2" cy="342.0" r="3.4" fill="#08080A" stroke="#45D6DD" stroke-width="2.1"/><circle cx="1459.4" cy="378.0" r="3.1" fill="#08080A" stroke="#45D6DD" stroke-width="2.1"/><circle cx="1509.7" cy="378.0" r="3.1" fill="#08080A" stroke="#45D6DD" stroke-width="2.1"/><text class="m" x="102.0" y="420" text-anchor="middle" fill="#9AA0A6" font-size="15">28 Ağu</text><text class="m" x="403.7" y="420" text-anchor="middle" fill="#9AA0A6" font-size="15">3 Eyl</text><text class="m" x="705.3" y="420" text-anchor="middle" fill="#9AA0A6" font-size="15">9 Eyl</text><text class="m" x="1007.0" y="420" text-anchor="middle" fill="#9AA0A6" font-size="15">15 Eyl</text><text class="m" x="1308.6" y="420" text-anchor="middle" fill="#9AA0A6" font-size="15">21 Eyl</text><circle class="ap" cx="1560.0" cy="390.0" r="6" fill="#45D6DD" filter="url(#agl)"/><circle cx="1560.0" cy="390.0" r="3.6" fill="#E8EAED"/></g></svg>