<svg xmlns="http://www.w3.org/2000/svg" viewBox="0 0 1600 470" width="1600" height="470" role="img" aria-label="EmrhnHARPUT son 30 günlük aktivite: toplam 85 katkı, günlük ortalama 2.8, en yüksek 11."><style>text{font-family:"Segoe UI", Ubuntu, Roboto, sans-serif}.m{font-family:"Consolas", "SF Mono", Menlo, monospace}@keyframes ap{0%,100%{opacity:.35}50%{opacity:1}}.ap{animation:ap 2.6s ease-in-out infinite}@media (prefers-reduced-motion:reduce){.ap{animation:none}}</style><defs><clipPath id="ac"><rect width="1600" height="470" rx="14"/></clipPath><linearGradient id="aar" gradientUnits="userSpaceOnUse" x1="0" y1="150" x2="0" y2="390"><stop offset="0" stop-color="#2BB3BA" stop-opacity=".50"/><stop offset="1" stop-color="#2BB3BA" stop-opacity="0"/></linearGradient><filter id="agl" x="-30%" y="-80%" width="160%" height="300%"><feGaussianBlur stdDeviation="4"/></filter></defs><g clip-path="url(#ac)"><rect width="1600" height="470" fill="#08080A"/><text x="40" y="56" fill="#E8EAED" font-size="26" font-weight="600">Aktivite</text><text x="40" y="88" fill="#9AA0A6" font-size="16">Son 30 gün · 11 Ağu – 9 Eyl 2026 · toplam 85 katkı · günlük ort. 2.8 · en yüksek 11</text><rect x="278.0" y="150" width="50.3" height="240" fill="#2BB3BA" opacity=".05"/><rect x="328.2" y="150" width="50.3" height="240" fill="#2BB3BA" opacity=".05"/><rect x="629.9" y="150" width="50.3" height="240" fill="#2BB3BA" opacity=".05"/><rect x="680.2" y="150" width="50.3" height="240" fill="#2BB3BA" opacity=".05"/><rect x="981.8" y="150" width="50.3" height="240" fill="#2BB3BA" opacity=".05"/><rect x="1032.1" y="150" width="50.3" height="240" fill="#2BB3BA" opacity=".05"/><rect x="1333.8" y="150" width="50.3" height="240" fill="#2BB3BA" opacity=".05"/><rect x="1384.0" y="150" width="50.3" height="240" fill="#2BB3BA" opacity=".05"/><line x1="102.0" y1="150" x2="102.0" y2="390" stroke="#23262B" stroke-width="1" opacity=".42"/><line x1="152.3" y1="150" x2="152.3" y2="390" stroke="#23262B" stroke-width="1" opacity=".18"/><line x1="202.6" y1="150" x2="202.6" y2="390" stroke="#23262B" stroke-width="1" opacity=".18"/><line x1="252.8" y1="150" x2="252.8" y2="390" stroke="#23262B" stroke-width="1" opacity=".18"/><line x1="303.1" y1="150" x2="303.1" y2="390" stroke="#23262B" stroke-width="1" opacity=".18"/><line x1="353.4" y1="150" x2="353.4" y2="390" stroke="#23262B" stroke-width="1" opacity=".18"/><line x1="403.7" y1="150" x2="403.7" y2="390" stroke="#23262B" stroke-width="1" opacity=".42"/><line x1="453.9" y1="150" x2="453.9" y2="390" stroke="#23262B" stroke-width="1" opacity=".18"/><line x1="504.2" y1="150" x2="504.2" y2="390" stroke="#23262B" stroke-width="1" opacity=".18"/><line x1="554.5" y1="150" x2="554.5" y2="390" stroke="#23262B" stroke-width="1" opacity=".18"/><line x1="604.8" y1="150" x2="604.8" y2="390" stroke="#23262B" stroke-width="1" opacity=".18"/><line x1="655.0" y1="150" x2="655.0" y2="390" stroke="#23262B" stroke-width="1" opacity=".18"/><line x1="705.3" y1="150" x2="705.3" y2="390" stroke="#23262B" stroke-width="1" opacity=".42"/><line x1="755.6" y1="150" x2="755.6" y2="390" stroke="#23262B" stroke-width="1" opacity=".18"/><line x1="805.9" y1="150" x2="805.9" y2="390" stroke="#23262B" stroke-width="1" opacity=".18"/><line x1="856.1" y1="150" x2="856.1" y2="390" stroke="#23262B" stroke-width="1" opacity=".18"/><line x1="906.4" y1="150" x2="906.4" y2="390" stroke="#23262B" stroke-width="1" opacity=".18"/><line x1="956.7" y1="150" x2="956.7" y2="390" stroke="#23262B" stroke-width="1" opacity=".18"/><line x1="1007.0" y1="150" x2="1007.0" y2="390" stroke="#23262B" stroke-width="1" opacity=".42"/><line x1="1057.2" y1="150" x2="1057.2" y2="390" stroke="#23262B" stroke-width="1" opacity=".18"/><line x1="1107.5" y1="150" x2="1107.5" y2="390" stroke="#23262B" stroke-width="1" opacity=".18"/><line x1="1157.8" y1="150" x2="1157.8" y2="390" stroke="#23262B" stroke-width="1" opacity=".18"/><line x1="1208.1" y1="150" x2="1208.1" y2="390" stroke="#23262B" stroke-width="1" opacity=".18"/><line x1="1258.3" y1="150" x2="1258.3" y2="390" stroke="#23262B" stroke-width="1" opacity=".18"/><line x1="1308.6" y1="150" x2="1308.6" y2="390" stroke="#23262B" stroke-width="1" opacity=".42"/><line x1="1358.9" y1="150" x2="1358.9" y2="390" stroke="#23262B" stroke-width="1" opacity=".18"/><line x1="1409.2" y1="150" x2="1409.2" y2="390" stroke="#23262B" stroke-width="1" opacity=".18"/><line x1="1459.4" y1="150" x2="1459.4" y2="390" stroke="#23262B" stroke-width="1" opacity=".18"/><line x1="1509.7" y1="150" x2="1509.7" y2="390" stroke="#23262B" stroke-width="1" opacity=".18"/><line x1="1560.0" y1="150" x2="1560.0" y2="390" stroke="#23262B" stroke-width="1" opacity=".18"/><line x1="102" y1="390.0" x2="1560" y2="390.0" stroke="#23262B" stroke-width="1" opacity="1"/><text class="m" x="86" y="395.0" text-anchor="end" fill="#9AA0A6" font-size="15">0</text><line x1="102" y1="330.0" x2="1560" y2="330.0" stroke="#23262B" stroke-width="1" opacity=".6"/><text class="m" x="86" y="335.0" text-anchor="end" fill="#9AA0A6" font-size="15">3</text><line x1="102" y1="270.0" x2="1560" y2="270.0" stroke="#23262B" stroke-width="1" opacity=".6"/><text class="m" x="86" y="275.0" text-anchor="end" fill="#9AA0A6" font-size="15">6</text><line x1="102" y1="210.0" x2="1560" y2="210.0" stroke="#23262B" stroke-width="1" opacity=".6"/><text class="m" x="86" y="215.0" text-anchor="end" fill="#9AA0A6" font-size="15">9</text><line x1="102" y1="150.0" x2="1560" y2="150.0" stroke="#23262B" stroke-width="1" opacity=".6"/><text class="m" x="86" y="155.0" text-anchor="end" fill="#9AA0A6" font-size="15">12</text><path d="M102.0,350.0 C110.4,333.3 135.5,250.0 152.3,250.0 C169.0,250.0 185.8,333.3 202.6,350.0 C219.3,366.7 236.1,353.3 252.8,350.0 C269.6,346.7 286.3,326.7 303.1,330.0 C319.9,333.3 336.6,370.0 353.4,370.0 C370.1,370.0 386.9,330.0 403.7,330.0 C420.4,330.0 437.2,366.7 453.9,370.0 C470.7,373.3 487.4,383.3 504.2,350.0 C521.0,316.7 537.7,176.7 554.5,170.0 C571.2,163.3 588.0,290.0 604.8,310.0 C621.5,330.0 638.3,286.7 655.0,290.0 C671.8,293.3 688.6,320.0 705.3,330.0 C722.1,340.0 738.8,346.7 755.6,350.0 C772.3,353.3 789.1,350.0 805.9,350.0 C822.6,350.0 839.4,350.0 856.1,350.0 C872.9,350.0 889.7,353.3 906.4,350.0 C923.2,346.7 939.9,330.0 956.7,330.0 C973.4,330.0 990.2,346.7 1007.0,350.0 C1023.7,353.3 1040.5,353.3 1057.2,350.0 C1074.0,346.7 1090.8,326.7 1107.5,330.0 C1124.3,333.3 1141.0,363.3 1157.8,370.0 C1174.6,376.7 1191.3,383.3 1208.1,370.0 C1224.8,356.7 1241.6,293.3 1258.3,290.0 C1275.1,286.7 1291.9,340.0 1308.6,350.0 C1325.4,360.0 1342.1,366.7 1358.9,350.0 C1375.7,333.3 1392.4,246.7 1409.2,250.0 C1425.9,253.3 1442.7,350.0 1459.4,370.0 C1476.2,390.0 1493.0,370.0 1509.7,370.0 C1526.5,370.0 1551.6,370.0 1560.0,370.0 L1560.0,390 L102.0,390 Z" fill="url(#aar)"/><line x1="102" y1="333.3" x2="1560" y2="333.3" stroke="#9AA0A6" stroke-width="1.2" stroke-dasharray="7 6" opacity=".7"/><text class="m" x="1554" y="323.3" text-anchor="end" fill="#9AA0A6" font-size="14" opacity=".9">ort.</text><path d="M102.0,350.0 C110.4,333.3 135.5,250.0 152.3,250.0 C169.0,250.0 185.8,333.3 202.6,350.0 C219.3,366.7 236.1,353.3 252.8,350.0 C269.6,346.7 286.3,326.7 303.1,330.0 C319.9,333.3 336.6,370.0 353.4,370.0 C370.1,370.0 386.9,330.0 403.7,330.0 C420.4,330.0 437.2,366.7 453.9,370.0 C470.7,373.3 487.4,383.3 504.2,350.0 C521.0,316.7 537.7,176.7 554.5,170.0 C571.2,163.3 588.0,290.0 604.8,310.0 C621.5,330.0 638.3,286.7 655.0,290.0 C671.8,293.3 688.6,320.0 705.3,330.0 C722.1,340.0 738.8,346.7 755.6,350.0 C772.3,353.3 789.1,350.0 805.9,350.0 C822.6,350.0 839.4,350.0 856.1,350.0 C872.9,350.0 889.7,353.3 906.4,350.0 C923.2,346.7 939.9,330.0 956.7,330.0 C973.4,330.0 990.2,346.7 1007.0,350.0 C1023.7,353.3 1040.5,353.3 1057.2,350.0 C1074.0,346.7 1090.8,326.7 1107.5,330.0 C1124.3,333.3 1141.0,363.3 1157.8,370.0 C1174.6,376.7 1191.3,383.3 1208.1,370.0 C1224.8,356.7 1241.6,293.3 1258.3,290.0 C1275.1,286.7 1291.9,340.0 1308.6,350.0 C1325.4,360.0 1342.1,366.7 1358.9,350.0 C1375.7,333.3 1392.4,246.7 1409.2,250.0 C1425.9,253.3 1442.7,350.0 1459.4,370.0 C1476.2,390.0 1493.0,370.0 1509.7,370.0 C1526.5,370.0 1551.6,370.0 1560.0,370.0" fill="none" stroke="#2BB3BA" stroke-width="7" opacity=".30" filter="url(#agl)" stroke-linejoin="round" stroke-linecap="round"/><path d="M102.0,350.0 C110.4,333.3 135.5,250.0 152.3,250.0 C169.0,250.0 185.8,333.3 202.6,350.0 C219.3,366.7 236.1,353.3 252.8,350.0 C269.6,346.7 286.3,326.7 303.1,330.0 C319.9,333.3 336.6,370.0 353.4,370.0 C370.1,370.0 386.9,330.0 403.7,330.0 C420.4,330.0 437.2,366.7 453.9,370.0 C470.7,373.3 487.4,383.3 504.2,350.0 C521.0,316.7 537.7,176.7 554.5,170.0 C571.2,163.3 588.0,290.0 604.8,310.0 C621.5,330.0 638.3,286.7 655.0,290.0 C671.8,293.3 688.6,320.0 705.3,330.0 C722.1,340.0 738.8,346.7 755.6,350.0 C772.3,353.3 789.1,350.0 805.9,350.0 C822.6,350.0 839.4,350.0 856.1,350.0 C872.9,350.0 889.7,353.3 906.4,350.0 C923.2,346.7 939.9,330.0 956.7,330.0 C973.4,330.0 990.2,346.7 1007.0,350.0 C1023.7,353.3 1040.5,353.3 1057.2,350.0 C1074.0,346.7 1090.8,326.7 1107.5,330.0 C1124.3,333.3 1141.0,363.3 1157.8,370.0 C1174.6,376.7 1191.3,383.3 1208.1,370.0 C1224.8,356.7 1241.6,293.3 1258.3,290.0 C1275.1,286.7 1291.9,340.0 1308.6,350.0 C1325.4,360.0 1342.1,366.7 1358.9,350.0 C1375.7,333.3 1392.4,246.7 1409.2,250.0 C1425.9,253.3 1442.7,350.0 1459.4,370.0 C1476.2,390.0 1493.0,370.0 1509.7,370.0 C1526.5,370.0 1551.6,370.0 1560.0,370.0" fill="none" stroke="#45D6DD" stroke-width="3.2" stroke-linejoin="round" stroke-linecap="round"/><circle cx="102.0" cy="350.0" r="3.3" fill="#08080A" stroke="#45D6DD" stroke-width="2.1"/><circle cx="152.3" cy="250.0" r="4.2" fill="#08080A" stroke="#45D6DD" stroke-width="2.1"/><circle cx="202.6" cy="350.0" r="3.3" fill="#08080A" stroke="#45D6DD" stroke-width="2.1"/><circle cx="252.8" cy="350.0" r="3.3" fill="#08080A" stroke="#45D6DD" stroke-width="2.1"/><circle cx="303.1" cy="330.0" r="3.5" fill="#08080A" stroke="#45D6DD" stroke-width="2.1"/><circle cx="353.4" cy="370.0" r="3.2" fill="#08080A" stroke="#45D6DD" stroke-width="2.1"/><circle cx="403.7" cy="330.0" r="3.5" fill="#08080A" stroke="#45D6DD" stroke-width="2.1"/><circle cx="453.9" cy="370.0" r="3.2" fill="#08080A" stroke="#45D6DD" stroke-width="2.1"/><circle cx="504.2" cy="350.0" r="3.3" fill="#08080A" stroke="#45D6DD" stroke-width="2.1"/><circle cx="554.5" cy="170.0" r="4.9" fill="#08080A" stroke="#45D6DD" stroke-width="2.1"/><circle cx="604.8" cy="310.0" r="3.7" fill="#08080A" stroke="#45D6DD" stroke-width="2.1"/><circle cx="655.0" cy="290.0" r="3.9" fill="#08080A" stroke="#45D6DD" stroke-width="2.1"/><circle cx="705.3" cy="330.0" r="3.5" fill="#08080A" stroke="#45D6DD" stroke-width="2.1"/><circle cx="755.6" cy="350.0" r="3.3" fill="#08080A" stroke="#45D6DD" stroke-width="2.1"/><circle cx="805.9" cy="350.0" r="3.3" fill="#08080A" stroke="#45D6DD" stroke-width="2.1"/><circle cx="856.1" cy="350.0" r="3.3" fill="#08080A" stroke="#45D6DD" stroke-width="2.1"/><circle cx="906.4" cy="350.0" r="3.3" fill="#08080A" stroke="#45D6DD" stroke-width="2.1"/><circle cx="956.7" cy="330.0" r="3.5" fill="#08080A" stroke="#45D6DD" stroke-width="2.1"/><circle cx="1007.0" cy="350.0" r="3.3" fill="#08080A" stroke="#45D6DD" stroke-width="2.1"/><circle cx="1057.2" cy="350.0" r="3.3" fill="#08080A" stroke="#45D6DD" stroke-width="2.1"/><circle cx="1107.5" cy="330.0" r="3.5" fill="#08080A" stroke="#45D6DD" stroke-width="2.1"/><circle cx="1157.8" cy="370.0" r="3.2" fill="#08080A" stroke="#45D6DD" stroke-width="2.1"/><circle cx="1208.1" cy="370.0" r="3.2" fill="#08080A" stroke="#45D6DD" stroke-width="2.1"/><circle cx="1258.3" cy="290.0" r="3.9" fill="#08080A" stroke="#45D6DD" stroke-width="2.1"/><circle cx="1308.6" cy="350.0" r="3.3" fill="#08080A" stroke="#45D6DD" stroke-width="2.1"/><circle cx="1358.9" cy="350.0" r="3.3" fill="#08080A" stroke="#45D6DD" stroke-width="2.1"/><circle cx="1409.2" cy="250.0" r="4.2" fill="#08080A" stroke="#45D6DD" stroke-width="2.1"/><circle cx="1459.4" cy="370.0" r="3.2" fill="#08080A" stroke="#45D6DD" stroke-width="2.1"/><circle cx="1509.7" cy="370.0" r="3.2" fill="#08080A" stroke="#45D6DD" stroke-width="2.1"/><text class="m" x="102.0" y="420" text-anchor="middle" fill="#9AA0A6" font-size="15">11 Ağu</text><text class="m" x="403.7" y="420" text-anchor="middle" fill="#9AA0A6" font-size="15">17 Ağu</text><text class="m" x="705.3" y="420" text-anchor="middle" fill="#9AA0A6" font-size="15">23 Ağu</text><text class="m" x="1007.0" y="420" text-anchor="middle" fill="#9AA0A6" font-size="15">29 Ağu</text><text class="m" x="1308.6" y="420" text-anchor="middle" fill="#9AA0A6" font-size="15">4 Eyl</text><circle class="ap" cx="1560.0" cy="370.0" r="6" fill="#45D6DD" filter="url(#agl)"/><circle cx="1560.0" cy="370.0" r="3.6" fill="#E8EAED"/></g></svg>